<?xml version="1.0" encoding="UTF-8" standalone="no"?>
<!-- Created with Inkscape (http://www.inkscape.org/) -->

<svg
   width="197.16806mm"
   height="183.26291mm"
   viewBox="0 0 197.16806 183.26291"
   version="1.1"
   id="svg1"
   xmlns="http://www.w3.org/2000/svg"
   xmlns:svg="http://www.w3.org/2000/svg">
  <defs
     id="defs1" />
  <g
     id="layer1"
     transform="translate(-6.4159622,-61.325329)">
    <path
       id="rect1"
       style="fill:#000000;stroke-width:0.341831"
       d="M 17.011477,61.325249 A 10.59524,10.59524 0 0 0 6.4160431,71.920683 V 233.99269 a 10.59524,10.59524 0 0 0 10.5954339,10.59543 h 82.966295 c -0.01379,-5.62461 1.424558,-11.23672 4.419228,-16.04423 2.69275,-3.65081 5.72154,-7.01427 8.87015,-10.27073 H 39.936775 A 10.59524,10.59524 0 0 1 29.34195,207.67834 V 122.20026 A 10.59524,10.59524 0 0 1 39.936775,111.60482 H 170.06348 a 10.59524,10.59524 0 0 1 10.59482,10.59544 v 28.57879 c 5.97019,-6.3111 14.18135,-10.69312 22.92591,-11.12666 V 71.920683 A 10.59524,10.59524 0 0 0 192.98877,61.325249 Z m 28.267488,68.456061 v 18.54018 h 65.394765 c 0.14149,-0.12746 0.27472,-0.26386 0.41853,-0.38868 9.91517,-9.33392 26.21018,-10.90941 37.7176,-3.60715 1.67705,1.27036 3.29183,2.61235 4.87066,3.99583 h 9.61399 v -18.54018 z m 0,27.43835 v 18.54018 h 54.843195 c -0.776346,-6.36469 0.61275,-12.8821 3.62725,-18.54018 z m 0,27.43834 v 19.60996 h 73.661175 c -1.99098,-1.99188 -3.98174,-3.98388 -5.97273,-5.97577 -4.26948,-3.79124 -7.98727,-8.40906 -10.34017,-13.63419 z"
       transform="matrix(0.84824887,0,0,0.84824887,15.933888,23.21135)" />
    <path
       id="rect7"
       style="fill:#000000;fill-opacity:1;stroke:none;stroke-width:0.264583;stroke-opacity:1"
       d="m 135.86795,79.454601 -11.07988,11.079888 -11.07989,-11.07989 a 6.6145845,6.6145845 180 0 0 -9.35444,0 l -0.47795,0.477954 a 6.6145838,6.6145838 90.000005 0 0 0,9.354433 l 11.07989,11.079894 -11.07989,11.07988 a 6.6145806,6.6145806 89.999997 0 0 0,9.35444 l 0.47795,0.47794 a 6.614585,6.614585 179.99999 0 0 9.35444,0 l 11.07988,-11.07988 11.07989,11.07988 a 6.6145854,6.6145854 179.99999 0 0 9.35444,0 l 0.47794,-0.47794 a 6.6145854,6.6145854 90.000009 0 0 0,-9.35444 l -11.07988,-11.07989 11.07988,-11.079885 a 6.6145851,6.6145851 90.000004 0 0 0,-9.354435 l -0.47794,-0.477948 a 6.6145809,6.6145809 1.2820187e-6 0 0 -9.35444,-10e-7 z"
       transform="matrix(1.9518356,0,0,1.9518356,-84.580487,4.0898627)" />
  </g>
</svg>
