<?xml version="1.0" encoding="UTF-8" standalone="no"?>
<svg
   width="204.34599"
   height="204.34599"
   viewBox="0 0 54.066 54.066"
   version="1.1"
   id="svg1"
   xmlns="http://www.w3.org/2000/svg"
   xmlns:svg="http://www.w3.org/2000/svg">
  <defs
     id="defs1" />
  <path
     id="circle1"
     style="fill:#000000;stroke-width:0.264583"
     d="M 27.034254,0 A 27.033001,27.033001 0 0 0 0.00103352,27.03322 27.033001,27.033001 0 0 0 27.034254,54.065923 27.033001,27.033001 0 0 0 54.066957,27.03322 27.033001,27.033001 0 0 0 27.034254,0 Z m -0.001,9.0122791 c 2.722077,0 4.928332,2.2062479 4.928332,4.9283319 v 15.443863 h 4.39917 c 2.152518,0 3.31914,2.519565 1.925961,4.160428 l -8.81281,10.379623 c -1.278778,1.506126 -3.60304,1.506124 -4.881823,0 L 15.779757,33.544902 c -1.393185,-1.640863 -0.227088,-4.160428 1.925444,-4.160428 h 4.399171 V 13.940611 c 0,-2.722084 2.206768,-4.9283319 4.928848,-4.9283319 z" />
</svg>
