<?xml version="1.0" encoding="UTF-8" standalone="no"?>
<!-- Created with Inkscape (http://www.inkscape.org/) -->

<svg
   version="1.1"
   id="svg1"
   width="155.08311"
   height="93.670601"
   viewBox="0 0 155.08311 93.670603"
   xml:space="preserve"
   xmlns="http://www.w3.org/2000/svg"
   xmlns:svg="http://www.w3.org/2000/svg"><style
     id="style21"><![CDATA[]]></style><defs
     id="defs1" /><path
     id="path9"
     style="fill:#000000;fill-opacity:1"
     d="M 38.783203,0.65429688 C 29.777482,0.70407025 20.237739,3.6030895 15.634766,6.9707031 -0.31405879,18.63914 -6.732806,86.883952 12.578125,92.185547 29.961408,96.957932 35.281651,80.462683 42.996094,71.164062 c 3.208987,3.700977 7.865217,5.828032 12.763672,5.832032 7.17625,-0.0313 13.551127,-4.588928 15.902343,-11.369141 h 5.878907 5.878906 c 2.351217,6.780213 8.726093,11.337841 15.902344,11.369141 4.898454,-0.004 9.554684,-2.131055 12.763674,-5.832032 7.71444,9.298621 13.03468,25.79387 30.41797,21.021485 C 161.81484,86.883952 155.39609,18.63914 139.44727,6.9707031 132.75203,2.072356 115.61453,-1.8333397 104.86328,2.5761719 100.66674,4.2973392 100.98303,10.539524 96.457031,13.275391 L 77.541016,13.228516 58.625,13.275391 C 54.099001,10.539524 54.415296,4.2973392 50.21875,2.5761719 46.858985,1.1981995 42.876713,0.63167261 38.783203,0.65429688 Z M 121.58008,17.332031 a 6.4962778,6.4962778 0 0 1 6.49609,6.496094 6.4962778,6.4962778 0 0 1 -6.49609,6.496094 6.4962778,6.4962778 0 0 1 -6.4961,-6.496094 6.4962778,6.4962778 0 0 1 6.4961,-6.496094 z m -95.107424,1.445313 h 11.97461 V 28.904297 H 48.574219 V 40.878906 H 38.447266 V 51.005859 H 26.472656 V 40.878906 h -10.125 V 28.904297 h 10.125 z M 109.48828,29.1875 a 6.4962778,6.4962778 0 0 1 6.4961,6.496094 6.4962778,6.4962778 0 0 1 -6.4961,6.496094 6.4962778,6.4962778 0 0 1 -6.49609,-6.496094 6.4962778,6.4962778 0 0 1 6.49609,-6.496094 z m 24.1836,0 a 6.4962778,6.4962778 0 0 1 6.49609,6.496094 6.4962778,6.4962778 0 0 1 -6.49609,6.496094 6.4962778,6.4962778 0 0 1 -6.4961,-6.496094 6.4962778,6.4962778 0 0 1 6.4961,-6.496094 z m -12.0918,11.855469 a 6.4962778,6.4962778 0 0 1 6.49609,6.496093 6.4962778,6.4962778 0 0 1 -6.49609,6.496094 6.4962778,6.4962778 0 0 1 -6.4961,-6.496094 6.4962778,6.4962778 0 0 1 6.4961,-6.496093 z m -66.011721,8.916015 c 5.909298,0 10.701172,4.791874 10.701172,10.701172 0,5.909298 -4.791874,10.699219 -10.701172,10.699219 -5.909297,0 -10.699218,-4.789921 -10.699218,-10.699219 0,-5.909298 4.789921,-10.701172 10.699218,-10.701172 z m 43.945313,0 c 5.909288,0 10.699218,4.791874 10.699218,10.701172 0,5.909298 -4.78993,10.699219 -10.699218,10.699219 -5.909298,0 -10.699219,-4.789921 -10.699219,-10.699219 0,-5.909298 4.789921,-10.701172 10.699219,-10.701172 z" /></svg>
