<?xml version="1.0" encoding="UTF-8" standalone="no"?>
<!-- Created with Inkscape (http://www.inkscape.org/) -->

<svg
   width="10.655888mm"
   height="10.035982mm"
   viewBox="0 0 10.655888 10.035982"
   version="1.1"
   id="svg1"
   xmlns="http://www.w3.org/2000/svg"
   xmlns:svg="http://www.w3.org/2000/svg">
  <defs
     id="defs1" />
  <g
     id="layer1"
     transform="translate(-78.878024,-141.6218)">
    <path
       id="path1"
       style="fill:#000000;fill-opacity:1;stroke:#000000;stroke-width:0.264583"
       d="m 76.546313,130.46791 -0.991114,0.27199 c -0.863043,0.23685 -1.461466,1.02161 -1.461462,1.91656 v 8.0868 c -2e-6,1.21963 0.988816,2.20778 2.208446,2.20778 h 4.499155 4.499154 c 1.219631,0 2.208449,-0.98815 2.208447,-2.20778 v -8.0868 c 4e-6,-0.89495 -0.59842,-1.67971 -1.461463,-1.91656 l -0.99045,-0.27199 c 0.464861,0.21431 0.786788,0.68271 0.786788,1.22994 v 7.37431 c 0,0.75073 -0.604592,1.35532 -1.355319,1.35532 h -7.374314 c -0.750728,0 -1.354656,-0.60459 -1.354656,-1.35532 v -7.37431 c 0,-0.5473 0.321829,-1.01567 0.786788,-1.22994 z"
       transform="matrix(0.77896765,0,0,0.77896765,21.264236,40.200291)" />
    <rect
       style="display:inline;fill:none;stroke:#000000;stroke-width:0.206102"
       id="rect1"
       width="7.8555369"
       height="7.8555369"
       x="80.278206"
       y="141.73309"
       ry="1.0555828" />
    <path
       d="m 85.076665,147.35733 h -1.782838 l -0.245313,0.83614 h -1.599717 l 1.903767,-5.0652 h 1.706825 l 1.903767,5.0652 h -1.637723 z m -0.328236,-1.09527 -0.559728,-1.82085 -0.556273,1.82085 z"
       id="text45"
       style="display:inline;fill:#000000;fill-opacity:1"
       aria-label="A" />
  </g>
</svg>
