<?xml version="1.0" encoding="UTF-8" standalone="no"?>
<!-- Created with Inkscape (http://www.inkscape.org/) -->

<svg
   version="1.1"
   id="logitech-gamepad_svg__svg1"
   width="155.084"
   height="161.44904"
   viewBox="0 0 155.084 161.44904"
   xml:space="preserve"
   xmlns="http://www.w3.org/2000/svg"><g
     id="logitech-gamepad_svg__g1"
     transform="translate(0.54177965,35.961458)"><circle
       id="logitech-gamepad_svg__a-button"
       cx="121.03812"
       cy="79.356384"
       r="6.4962778"
       class="logitech-gamepad_svg__control" /><circle
       id="logitech-gamepad_svg__y-button"
       cx="121.03812"
       cy="55.645496"
       r="6.4962778"
       class="logitech-gamepad_svg__control" /><circle
       id="logitech-gamepad_svg__x-button"
       cx="108.94624"
       cy="67.500938"
       r="6.4962778"
       class="logitech-gamepad_svg__control" /><circle
       id="logitech-gamepad_svg__b-button"
       cx="133.13028"
       cy="67.500938"
       r="6.4962778"
       class="logitech-gamepad_svg__control" /><path
       id="logitech-gamepad_svg__dpad"
       d="m 27.764861,55.528776 v 7.025391 H 20.73947 v 8.308594 h 7.025391 v 7.02539 h 8.308594 v -7.02539 h 7.02539 v -8.308594 h -7.02539 v -7.025391 z"
       class="logitech-gamepad_svg__control" /><rect
       id="logitech-gamepad_svg__dpad-up"
       width="8.3089437"
       height="22.359838"
       x="27.76403"
       y="55.528061"
       class="logitech-gamepad_svg__dpad-overlay" /><rect
       id="logitech-gamepad_svg__dpad-left"
       width="8.3089437"
       height="22.359838"
       x="62.553509"
       y="-43.098423"
       transform="rotate(90)"
       class="logitech-gamepad_svg__dpad-overlay" /><rect
       id="logitech-gamepad_svg__dpad-down"
       width="8.3089437"
       height="22.359838"
       x="27.76403"
       y="55.528061"
       class="logitech-gamepad_svg__dpad-overlay" /><rect
       id="logitech-gamepad_svg__dpad-right"
       width="8.309"
       height="22.359838"
       x="62.553509"
       y="-43.098423"
       transform="rotate(90)"
       class="logitech-gamepad_svg__dpad-overlay" /><path
       d="m 44.327986,92.476425 c 0,5.90931 4.790443,10.699755 10.699752,10.699755 5.90931,0 10.699752,-4.790445 10.699752,-10.699755 0,-5.90931 -4.790442,-10.699752 -10.699752,-10.699752 -5.909309,0 -10.699752,4.790442 -10.699752,10.699752 z"
       id="logitech-gamepad_svg__left-joystick"
       class="logitech-gamepad_svg__control" /><path
       d="m 109.67245,92.476425 c 0,5.90931 -4.79044,10.699755 -10.699748,10.699755 -5.90931,0 -10.699752,-4.790445 -10.699752,-10.699755 0,-5.90931 4.790442,-10.699752 10.699752,-10.699752 5.909308,0 10.699748,4.790442 10.699748,10.699752 z"
       id="logitech-gamepad_svg__right-joystick"
       class="logitech-gamepad_svg__control" /><path
       d="M 38.16607,32.48139 C 34.8224,25.029777 23.54945,32.43362 23.35838,34.82196"
       id="logitech-gamepad_svg__left-trigger-silhouette"
       class="logitech-gamepad_svg__control" /><path
       d="m 115.83437,32.48139 c 3.34367,-7.451613 14.61662,-0.04777 14.80769,2.34057"
       id="logitech-gamepad_svg__right-bumper-silhouette"
       class="logitech-gamepad_svg__control" /><path
       d="m 114.62639,32.309925 c 0,4.977163 4.03479,9.011952 9.01195,9.011952 4.97717,0 9.01195,-4.034789 9.01195,-9.011952 0,-4.977163 -4.03478,-9.011951 -9.01195,-9.011951 -4.97716,0 -9.01195,4.034788 -9.01195,9.011951 z"
       id="logitech-gamepad_svg__path51"
       class="logitech-gamepad_svg__eye" /><path
       d="M 132.65389,33.100669 142.78674,-4.7286669"
       id="logitech-gamepad_svg__path52"
       class="logitech-gamepad_svg__eye" /><path
       d="m 98.20217,-1.2159429 16.8881,36.4782879"
       id="logitech-gamepad_svg__path53"
       class="logitech-gamepad_svg__eye" /><path
       d="m 96.023262,-11.19381 c 0,13.1621312 10.670018,23.832147 23.832148,23.832147 13.16213,0 23.83215,-10.6700158 23.83215,-23.832147 0,-13.162132 -10.67002,-23.832148 -23.83215,-23.832148 -13.16213,0 -23.832148,10.670016 -23.832148,23.832148 z"
       id="logitech-gamepad_svg__path54"
       class="logitech-gamepad_svg__eye" /><path
       d="m 39.374048,32.309925 c 0,4.977163 -4.034788,9.011952 -9.011951,9.011952 -4.977164,0 -9.011952,-4.034789 -9.011952,-9.011952 0,-4.977163 4.034788,-9.011951 9.011952,-9.011951 4.977163,0 9.011951,4.034788 9.011951,9.011951 z"
       id="logitech-gamepad_svg__circle15"
       class="logitech-gamepad_svg__eye" /><path
       d="M 21.346554,33.100669 11.213696,-4.7286669"
       id="logitech-gamepad_svg__path15"
       class="logitech-gamepad_svg__eye" /><path
       d="M 55.79827,-1.2159429 38.910174,35.262345"
       id="logitech-gamepad_svg__path16"
       class="logitech-gamepad_svg__eye" /><path
       d="m 57.977179,-11.19381 c 0,13.1621312 -10.670016,23.832147 -23.832148,23.832147 -13.162132,0 -23.832148,-10.6700158 -23.832148,-23.832147 0,-13.162132 10.670016,-23.832148 23.832148,-23.832148 13.162132,0 23.832148,10.670016 23.832148,23.832148 z"
       id="logitech-gamepad_svg__path14"
       class="logitech-gamepad_svg__eye" /><path
       d="m 127.58746,-26.852073 -15.33439,0.202657 0.20265,9.761319 13.61181,0.303987 c 1.01329,-1.384824 1.51993,-10.267963 1.51993,-10.267963 z"
       id="logitech-gamepad_svg__right-bumper"
       class="logitech-gamepad_svg__control" /><path
       d="m 26.412982,-26.852073 15.334391,0.202657 -0.202656,9.761319 -13.611806,0.303987 c -1.013286,-1.384824 -1.519929,-10.267963 -1.519929,-10.267963 z"
       id="logitech-gamepad_svg__left-bumper"
       class="logitech-gamepad_svg__control" /><path
       d="m 126.91669,-14.282258 c -0.0239,-1.313586 -1.0031,1.241935 -1.0031,1.241935 l -12.89702,0.429901 -0.8598,-1.76737 c -0.33437,-2.268921 -4.35335,28.889379 10.41315,19.2022337 5.13297,-3.3673393 4.34677,-19.1066997 4.34677,-19.1066997 z"
       id="logitech-gamepad_svg__right-trigger"
       class="logitech-gamepad_svg__control" /><path
       d="m 27.083747,-14.282258 c 0.02388,-1.313586 1.003102,1.241935 1.003102,1.241935 l 12.897022,0.429901 0.859802,-1.76737 C 42.17804,-16.646713 46.19702,14.511587 31.430521,4.8244417 26.297553,1.4571024 27.083747,-14.282258 27.083747,-14.282258 Z"
       id="logitech-gamepad_svg__left-trigger"
       class="logitech-gamepad_svg__control" /><rect
       id="logitech-gamepad_svg__back-button"
       width="8.808733"
       height="6.9016895"
       x="56.593773"
       y="51.863052"
       rx="2.3716838"
       ry="3.8612342"
       class="logitech-gamepad_svg__control" /><rect
       id="logitech-gamepad_svg__start-button"
       width="8.808733"
       height="6.9016895"
       x="88.310898"
       y="51.958588"
       rx="2.3716838"
       ry="3.8612342"
       class="logitech-gamepad_svg__control" /><rect
       id="logitech-gamepad_svg__brand-button"
       width="17.48263"
       height="13.947891"
       x="68.30645"
       y="53.880894"
       rx="5.572"
       ry="7.5609999"
       class="logitech-gamepad_svg__control" /><path
       id="logitech-gamepad_svg__path9"
       d="m 77.00022,97.443359 h 5.878686 c 2.351219,6.780221 8.726086,11.337841 15.902344,11.369141 4.89846,-0.004 9.55468,-2.13105 12.76367,-5.83203 7.71445,9.29863 13.03467,25.79387 30.41797,21.02148 19.31095,-5.3016 12.8922,-73.546392 -3.05664,-85.214841 -6.69524,-4.898352 -23.83272,-8.804047 -34.58398,-4.394531 -4.19655,1.721169 -3.88025,7.96335 -8.406254,10.699219 L 77.00022,45.044923 58.084424,45.091797 C 53.55842,42.355928 53.87472,36.113747 49.67817,34.392578 38.92691,29.983062 21.78943,33.888757 15.09419,38.787109 -0.85464967,50.455558 -7.2733997,118.70035 12.03755,124.00195 c 17.3833,4.77239 22.70352,-11.72285 30.41797,-21.02148 3.20899,3.70098 7.86521,5.82803 12.76367,5.83203 7.176258,-0.0313 13.551125,-4.58892 15.902344,-11.369141 z"
       class="logitech-gamepad_svg__frame" /><path
       id="logitech-gamepad_svg__path6"
       d="m 111.54492,102.98047 c 2.6708,-3.073084 4.14311,-7.006641 4.14649,-11.078125 -0.002,-0.997546 -0.0921,-1.992965 -0.26953,-2.97461 2.05833,0.57506 4.18774,0.869496 6.32812,0.875 12.86702,-8.13e-4 23.29725,-10.220307 23.29688,-22.826173 C 145.04725,54.370697 134.61702,44.151204 121.75,44.150391 108.88222,44.15015 98.450802,54.369952 98.451172,66.976562 c 0.0199,2.760119 0.550625,5.493816 1.566408,8.06836 -0.411352,-0.032 -0.823738,-0.04894 -1.23633,-0.05078 -9.337862,6.78e-4 -16.907525,7.570341 -16.908203,16.908203 0.0232,1.890245 0.363201,3.76322 1.005859,5.541015 m -40.423386,5.53711 c -2.6708,-3.073084 -4.14311,-7.006641 -4.14649,-11.078125 0.002,-0.997546 0.0921,-1.992965 0.26953,-2.97461 -2.05833,0.57506 -4.18774,0.869496 -6.32812,0.875 C 19.38342,89.801922 8.9531903,79.582428 8.9535603,66.976562 8.9531903,54.370697 19.38342,44.151204 32.25044,44.150391 c 12.86778,-2.41e-4 23.299198,10.219561 23.298828,22.826171 -0.0199,2.760119 -0.550625,5.493816 -1.566408,8.06836 0.411352,-0.032 0.823738,-0.04894 1.23633,-0.05078 9.337862,6.78e-4 16.907525,7.570341 16.908203,16.908203 -0.0232,1.890245 -0.363201,3.76322 -1.005859,5.541015"
       class="logitech-gamepad_svg__frame" /><path
       d="m 151.89826,68.784119 c 0,0 -19.01117,39.837471 -3.82134,50.728291 M 2.1021803,68.784119 c 0,0 19.0111697,39.837471 3.82134,50.728291"
       id="logitech-gamepad_svg__path13"
       class="logitech-gamepad_svg__frame" /><path
       d="m 129.95179,3.1749621 c 5.20154,0.878181 13.00384,-7.1605528 13.00384,-7.1605528 1.82391,-5.6744003 -1.11462,-16.4152293 -1.11462,-16.4152293 -1.21594,0.810629 -9.05202,23.2380202 -11.88922,23.5757821 z"
       id="logitech-gamepad_svg__path60"
       class="logitech-gamepad_svg__frame" /><path
       d="M 24.048649,3.1749621 C 18.847115,4.0531431 11.044814,-3.9855907 11.044814,-3.9855907 9.2208996,-9.659991 12.159429,-20.40082 12.159429,-20.40082 c 1.215943,0.810629 9.05202,23.2380202 11.88922,23.5757821 z"
       id="logitech-gamepad_svg__path18"
       class="logitech-gamepad_svg__frame" /><path
       d="m 141.85982,-20.220703 c -6.24634,10.7708479 -11.2518,35.774954 -29.74219,30.894531 -11.80128,-3.1148734 -6.97373,-9.5300053 -15.533206,-17.0156249 0,0 -5.205045,-21.1520241 16.411716,-27.3668431 21.07635,-5.94461 28.86368,13.487937 28.86368,13.487937 z"
       id="logitech-gamepad_svg__path59"
       class="logitech-gamepad_svg__frame" /><path
       d="m 12.140625,-20.220703 c 6.246335,10.7708479 11.251796,35.774954 29.742187,30.894531 11.801279,-3.1148734 6.973724,-9.5300053 15.533204,-17.0156249 0,0 5.205045,-21.1520241 -16.411718,-27.3668431 -21.076344,-5.94461 -28.863673,13.487937 -28.863673,13.487937 z"
       id="logitech-gamepad_svg__path17"
       class="logitech-gamepad_svg__frame" /></g></svg>
