<?xml version="1.0" encoding="UTF-8" standalone="no"?>
<!-- Created with Inkscape (http://www.inkscape.org/) -->

<svg
   width="116.03172mm"
   height="101.1762mm"
   viewBox="0 0 116.03171 101.1762"
   version="1.1"
   id="svg1"
   xmlns="http://www.w3.org/2000/svg"
   xmlns:svg="http://www.w3.org/2000/svg">
  <defs
     id="defs1" />
  <g
     id="layer1"
     transform="translate(-38.794688,-90.872983)">
    <circle
       style="fill:#000000;stroke-width:1.45381"
       id="path1"
       cx="96.8097"
       cy="168.70343"
       r="9.2508936" />
    <path
       id="path3"
       style="fill:#000000;stroke-width:1.765"
       d="m 96.810547,104.99414 c -41.841249,0 -64.08023,29.81241 -56.574219,35.0625 7.506013,5.25011 15.137589,-25.3457 56.574219,-25.3457 41.436633,0 49.068203,30.59581 56.574223,25.3457 7.50601,-5.25009 -14.73297,-35.0625 -56.574223,-35.0625 z m 0,17.68555 c -31.573051,0 -48.990388,25.45553 -41.484375,29.92773 7.506011,4.4722 10.627102,-20.21094 41.484375,-20.21094 30.857273,0 33.976413,24.68314 41.482423,20.21094 7.50601,-4.4722 -9.90937,-29.92773 -41.482423,-29.92773 z m 0,17.68554 c -19.849627,0 -33.961935,19.38106 -26.5625,24.06641 7.399435,4.68535 9.027298,-14.34961 26.5625,-14.34961 17.535203,0 19.163063,19.03496 26.562503,14.34961 7.39943,-4.68535 -6.71288,-24.06641 -26.562503,-24.06641 z" />
  </g>
</svg>
