<?xml version="1.0" encoding="UTF-8" standalone="no"?>
<!-- Created with Inkscape (http://www.inkscape.org/) -->

<svg
   width="74.936966mm"
   height="84.387611mm"
   viewBox="0 0 74.936966 84.387611"
   version="1.1"
   id="svg1"
   xmlns="http://www.w3.org/2000/svg"
   xmlns:svg="http://www.w3.org/2000/svg">
  <defs
     id="defs1" />
  <path
     id="path2"
     style="display:inline;fill:#000000;stroke-width:0.264583"
     d="m 15.557707,8.653735 c -4.383756,0 -7.9375,3.553745 -7.9375,7.9375 v 48.317466 c 2.6e-5,5.19279 4.079196,10.77764 11.278898,10.77764 h 19.151802 c -2.20139,-0.84095 -4.093988,-2.46032 -4.989359,-4.67569 -0.876711,-3.07053 -0.724356,-6.31674 -0.650606,-9.47797 -0.207742,-2.87498 0.712614,-5.98227 3.022037,-7.83622 2.491905,-2.04714 5.898012,-2.11125 8.964311,-1.99057 -0.0185,-0.65433 -0.02556,-1.31031 -0.07338,-1.96319 -0.353057,-3.62327 1.003558,-7.68436 4.248318,-9.62422 2.72733,-1.63867 6.0216,-1.09111 9.04389,-1.22318 0.43832,-0.005 0.87598,-0.002 1.31414,0.0114 1.96543,-0.0437 3.98482,0.4074 5.57382,1.61282 2.19654,1.5019 3.10713,3.87125 3.43286,6.38256 v -14.14694 h -15.01665 c -5.01731,-1.1e-4 -9.084614,-4.06742 -9.084721,-9.084721 V 8.653735 Z" />
  <path
     id="rect3"
     style="display:inline;fill:#000000;stroke-width:0.653912"
     d="m 50.19976,47.451451 v 7.415544 a 2.5335687,2.7003904 0 0 1 -2.533561,2.700382 H 40.708768 A 2.5335687,2.7003904 0 0 0 38.1752,60.267759 v 7.415545 a 2.5335687,2.7003904 0 0 0 2.533568,2.700382 h 6.957431 a 2.5335687,2.7003904 0 0 1 2.533561,2.700382 v 7.415544 a 2.5335687,2.7003904 0 0 0 2.533561,2.700382 h 6.958656 a 2.5335687,2.7003904 0 0 0 2.533561,-2.700382 v -7.415544 a 2.5335687,2.7003904 0 0 1 2.533561,-2.700382 h 6.957435 a 2.5335687,2.7003904 0 0 0 2.533561,-2.700382 v -7.415545 a 2.5335687,2.7003904 0 0 0 -2.533561,-2.700382 h -6.957435 a 2.5335687,2.7003904 0 0 1 -2.533561,-2.700382 v -7.415544 a 2.5335687,2.7003904 0 0 0 -2.533561,-2.700382 h -6.958656 a 2.5335687,2.7003904 0 0 0 -2.533561,2.700382 z" />
  <path
     id="path1"
     style="display:inline;fill:#000000;stroke-width:0.226083"
     d="M 48.900489,8.653735 V 21.22778 a 6.4623996,6.4623996 45 0 0 6.4624,6.4624 h 12.574049 z" />
</svg>
