<?xml version="1.0" encoding="UTF-8" standalone="no"?>
<!-- Created with Inkscape (http://www.inkscape.org/) -->

<svg
   width="116.03172mm"
   height="101.1762mm"
   viewBox="0 0 116.03171 101.1762"
   version="1.1"
   id="svg1"
   xmlns="http://www.w3.org/2000/svg"
   xmlns:svg="http://www.w3.org/2000/svg">
  <defs
     id="defs1" />
  <g
     id="layer1"
     transform="translate(-38.794688,-90.872983)">
    <circle
       style="fill:#000000;stroke-width:1.45381"
       id="path1"
       cx="96.8097"
       cy="168.70343"
       r="9.2508936" />
    <path
       id="path3"
       style="fill:#000000;stroke-width:1.765"
       d="m 96.810785,104.99408 c -41.841207,0 -64.080329,29.81237 -56.574325,35.06246 7.506005,5.2501 15.137737,-25.34574 56.574325,-25.34574 5.160945,0 9.796115,0.47569 13.973305,1.29657 2.90406,-2.6144 5.80317,-5.23427 8.7049,-7.8512 -6.72443,-1.95383 -14.30072,-3.16209 -22.678205,-3.16209 z m 41.659985,11.80807 c -2.61714,2.37188 -5.23691,4.74059 -7.85946,7.10654 13.2558,8.53409 18.04358,19.45606 22.77328,16.14785 4.34468,-3.03889 -1.29396,-14.30168 -14.91382,-23.25439 z m -41.659985,5.87768 c -31.573019,0 -48.990811,25.45517 -41.484806,29.92737 7.128467,4.24725 10.320476,-17.78603 37.053035,-20.0148 3.544273,-3.18778 7.082601,-6.38206 10.626746,-9.56996 -2.00025,-0.21799 -4.062206,-0.34261 -6.194975,-0.34261 z m 27.192655,7.19232 c -0.17113,0.15424 -0.34202,0.30879 -0.51315,0.46302 -2.37013,2.14145 -4.74904,4.27319 -7.12153,6.41202 13.29208,6.86601 16.44632,19.12384 21.92425,15.86001 4.91464,-2.92823 -0.85741,-14.85079 -14.28957,-22.73505 z m -14.61306,13.15837 c -2.76706,2.4908 -5.53206,4.98394 -8.30027,7.47345 13.58186,2.75953 15.53643,18.1997 22.28288,13.92783 5.69872,-3.60846 -1.36825,-15.92625 -13.98261,-21.40128 z" />
    <rect
       style="fill:#000000;stroke-width:1.765"
       id="rect10"
       width="132.45328"
       height="9.6809692"
       x="-88.835861"
       y="165.08932"
       rx="4.8404846"
       ry="4.8404846"
       transform="rotate(-41.962593)" />
  </g>
</svg>
