<?xml version="1.0" encoding="UTF-8" standalone="no"?>
<!-- Created with Inkscape (http://www.inkscape.org/) -->

<svg
   width="43.179211mm"
   height="34.32235mm"
   viewBox="0 0 43.179211 34.32235"
   version="1.1"
   id="svg1"
   xmlns="http://www.w3.org/2000/svg"
   xmlns:svg="http://www.w3.org/2000/svg">
  <defs
     id="defs1" />
  <g
     id="layer1"
     transform="translate(-80.90868,-64.243546)">
    <path
       id="path4"
       style="display:inline;fill:#000000;stroke-width:0.264583"
       d="m 82.231597,64.243546 a 1.3229192,1.3229192 0 0 0 -1.322917,1.322917 v 30.669962 c 1.975149,-6.869651 3.944096,-13.741219 5.944857,-20.603393 0.348435,-2.01083 2.180086,-3.590648 4.206461,-3.694865 9.212502,-0.03848 18.427402,-0.01144 27.640692,-0.02842 v -2.368331 a 1.3229059,1.3229059 0 0 0 -1.32292,-1.322917 H 97.806873 A 1.3229167,1.3229167 0 0 1 96.483957,66.895581 V 65.566463 A 1.3229142,1.3229142 0 0 0 95.16104,64.243546 Z" />
    <path
       id="path5"
       style="display:inline;fill:#000000;stroke-width:0.976487"
       d="m 116.9082,74.539062 c -8.41795,0.01935 -16.83721,-0.03077 -25.254281,0.03549 -0.820884,-0.100448 -1.665528,0.27932 -1.983953,1.071907 -0.55959,1.354352 -0.812813,2.821165 -1.273884,4.214328 -1.748916,6.128312 -3.571189,12.243195 -5.233973,18.381399 0.43638,0.591125 1.315461,0.166184 1.935157,0.293078 10.451397,-0.0148 20.907304,0.04064 31.355854,-0.04698 1.11667,-0.230274 1.5472,-1.403476 1.71361,-2.396826 1.97806,-7.084573 4.00699,-14.16084 5.92116,-21.259424 -0.44086,-0.59184 -1.3202,-0.200885 -1.94648,-0.311742 -1.7444,0.0063 -3.4888,0.01252 -5.23321,0.01877 z" />
  </g>
</svg>
