<?xml version="1.0" encoding="UTF-8" standalone="no"?>
<!-- Created with Inkscape (http://www.inkscape.org/) -->

<svg
   width="78.155029mm"
   height="78.154999mm"
   viewBox="0 0 78.155029 78.154999"
   version="1.1"
   id="svg1"
   xml:space="preserve"
   xmlns="http://www.w3.org/2000/svg"
   xmlns:svg="http://www.w3.org/2000/svg"><defs
     id="defs1" /><g
     id="layer1"
     transform="translate(-34.052293,-90.161917)"><g
       id="g1"><path
         style="fill:#000000;stroke-width:5.29652"
         d="m 54.514567,159.35109 c -7.740429,-3.09143 -9.583836,-5.39446 -7.473733,-9.33719 2.363118,-4.41555 -4.576624,-14.75945 -9.902183,-14.75945 -2.952991,0 -3.404207,-1.2253 -2.918484,-7.92503 0.446179,-6.15456 1.398991,-8.08159 4.264966,-8.62618 4.858871,-0.92329 8.641028,-5.95483 7.659937,-10.19035 -0.950619,-4.10396 9.644423,-11.271899 13.874332,-9.386496 3.875571,1.727516 15.09546,0.961796 17.710724,-1.208667 3.149207,-2.613622 16.497133,1.379003 15.273212,4.568463 -1.25464,3.2696 6.415096,10.34628 11.213372,10.34628 2.24144,0 4.66762,1.93996 5.95218,4.75919 3.03433,6.65958 2.70732,9.76594 -1.15718,10.99245 -1.82905,0.58056 -4.30899,3.66091 -5.51098,6.84523 -1.88895,5.00442 -1.69129,6.32008 1.45712,9.69947 2.00336,2.15039 3.64248,4.9514 3.64248,6.22453 0,2.64805 -8.80007,10.06355 -11.930103,10.05306 -1.146009,-0.004 0.706344,-1.70802 4.116353,-3.78701 3.89114,-2.37237 5.97596,-4.97905 5.59842,-6.99989 -0.52912,-2.83157 -25.836435,-21.38624 -27.322427,-20.03203 -0.809203,0.73744 8.898211,23.66921 11.505954,27.18048 1.18229,1.59187 0.444378,1.13145 -1.639645,-1.02318 -4.863744,-5.02846 -18.590742,-4.31793 -21.998418,1.1387 -2.421412,3.87727 -5.477823,4.23854 -12.415897,1.46762 z m 22.047094,-20.15068 c 1.94144,-1.23022 2.049913,-2.49662 0.467153,-5.45399 -3.718212,-6.9475 -2.271838,-8.2693 4.481441,-4.09553 l 6.542847,4.04368 1.586521,-4.28875 c 3.653912,-9.87754 -4.617827,-18.44181 -17.811889,-18.44181 -18.54784,0 -24.026828,19.96435 -7.45708,27.17207 7.000308,3.04513 8.815109,3.20354 12.191007,1.06433 z"
         id="path1" /></g></g></svg>
