<?xml version="1.0" encoding="UTF-8" standalone="no"?>
<!-- Created with Inkscape (http://www.inkscape.org/) -->

<svg
   width="60.880234mm"
   height="60.880234mm"
   viewBox="0 0 60.880234 60.880234"
   version="1.1"
   id="svg1"
   xmlns="http://www.w3.org/2000/svg"
   xmlns:svg="http://www.w3.org/2000/svg">
  <defs
     id="defs1" />
  <g
     id="layer1"
     transform="translate(-73.670326,-98.628319)">
    <path
       d="m 102.53809,139.6714 c -6.278352,0 -7.092205,-5.12163 -6.237948,-7.45142 0.515673,-1.42982 1.277463,-2.73072 2.285369,-3.90271 1.031347,-1.17198 3.328439,-3.23467 6.891269,-6.18807 1.89861,-1.54702 2.84792,-2.96512 2.84792,-4.2543 0,-1.28919 -0.38675,-2.28537 -1.16026,-2.98856 -0.75007,-0.72663 -1.89862,-1.08995 -3.44564,-1.08995 -6.008699,0 -7.861136,10.4821 -13.240822,8.57447 -7.388748,-2.62004 -5.439002,-10.83186 -1.17458,-14.93834 3.187796,-3.0706 8.063249,-5.63489 14.626362,-5.63489 5.10985,0 9.23524,2.0955 12.37615,4.22851 4.26602,2.88308 6.39903,6.72719 6.39903,11.53232 0,1.99237 -0.55083,3.91443 -1.65249,5.76616 -1.10167,1.85173 -3.35188,4.11366 -6.75063,6.78579 -2.36741,1.87517 -4.06781,3.88769 -4.70068,5.03624 -1.02108,1.76857 -0.78469,4.52475 -7.06305,4.52475 z"
       id="text2"
       style="font-weight:900;font-size:72.0067px;font-family:Arial;-inkscape-font-specification:'Arial, Heavy';stroke-width:17.9608"
       aria-label="?" />
    <circle
       style="fill:#000000;stroke-width:1.79258"
       id="path2"
       cx="102.52295"
       cy="149.83134"
       r="6.5078931" />
  </g>
</svg>
