<?xml version="1.0" encoding="UTF-8" standalone="no"?>
<!-- Created with Inkscape (http://www.inkscape.org/) -->

<svg
   width="74.936966mm"
   height="84.387611mm"
   viewBox="0 0 74.936966 84.387611"
   version="1.1"
   id="svg1"
   xmlns="http://www.w3.org/2000/svg"
   xmlns:svg="http://www.w3.org/2000/svg">
  <defs
     id="defs1" />
  <g
     id="layer1"
     transform="translate(-55.344942,-74.341199)">
    <path
       id="path1"
       style="fill:#000000;stroke-width:0.264583"
       d="m 55.344942,82.055527 0,68.958953 a 7.7143285,7.7143285 45 0 0 7.714328,7.71433 h 69.32431 a 7.7143285,7.7143285 135 0 0 7.71433,-7.71433 V 94.027568 a 7.3987052,7.3987052 67.499995 0 0 -2.16703,-5.231676 L 125.64321,76.50823 a 7.3987089,7.3987089 22.499995 0 0 -5.23167,-2.167031 H 63.059271 a 7.7143285,7.7143285 135 0 0 -7.714329,7.714328 z m 17.849814,2.887513 40.832914,0 a 3.96875,3.96875 45 0 1 3.96875,3.96875 v 16.34845 a 3.96875,3.96875 135 0 1 -3.96875,3.96875 H 73.194756 a 3.96875,3.96875 45 0 1 -3.96875,-3.96875 V 88.91179 a 3.96875,3.96875 135 0 1 3.96875,-3.96875 z m 23.430871,7.43934 0,7.76345 a 3.96875,3.96875 45 0 0 3.968753,3.96875 h 9.04957 a 3.96875,3.96875 135 0 0 3.96875,-3.96875 v -7.76345 a 3.96875,3.96875 45 0 0 -3.96875,-3.96875 h -9.04957 a 3.96875,3.96875 135 0 0 -3.968753,3.96875 z m -23.430871,27.62321 50.442194,0 a 3.96875,3.96875 45 0 1 3.96875,3.96875 v 19.00342 a 3.96875,3.96875 135 0 1 -3.96875,3.96875 H 73.194756 a 3.96875,3.96875 45 0 1 -3.96875,-3.96875 v -19.00342 a 3.96875,3.96875 135 0 1 3.96875,-3.96875 z"
       transform="matrix(0.7081107,0,0,0.80086617,23.615839,23.206062)" />
  </g>
</svg>
