<?xml version="1.0" encoding="UTF-8" standalone="no"?>
<!-- Created with Inkscape (http://www.inkscape.org/) -->

<svg
   width="74.936966mm"
   height="84.387611mm"
   viewBox="0 0 74.936966 84.387611"
   version="1.1"
   id="svg1"
   xmlns="http://www.w3.org/2000/svg"
   xmlns:svg="http://www.w3.org/2000/svg">
  <defs
     id="defs1" />
  <g
     id="layer1"
     transform="translate(-55.344942,-74.341199)">
    <path
       id="path1"
       style="fill:#000000;stroke-width:0.264583"
       d="m 63.059154,74.341019 a 7.7143285,7.7143285 0 0 0 -7.714493,7.71469 V 151.0143 a 7.7143285,7.7143285 0 0 0 7.714493,7.71469 h 36.765537 c -3.64331,-0.88711 -6.891452,-3.07185 -8.326779,-6.21189 -0.587344,-1.81882 -0.841959,-3.6878 -0.942144,-5.5705 H 73.195055 a 3.96875,3.96875 0 0 1 -3.969268,-3.96897 v -19.00346 a 3.96875,3.96875 0 0 1 3.969268,-3.96833 h 34.951305 c 0.93245,-2.48154 2.66838,-4.69443 5.25587,-6.06219 3.85155,-2.04612 8.50375,-1.36241 12.77186,-1.52732 0.619,-0.006 1.23706,-0.002 1.85583,0.0142 2.77561,-0.0546 5.6274,0.5087 7.8714,2.01384 2.18413,1.32045 3.46582,3.17899 4.19623,5.25691 V 94.027803 a 7.3987052,7.3987052 0 0 0 -2.16672,-5.231742 L 125.64354,76.508437 a 7.3987089,7.3987089 0 0 0 -5.23178,-2.167418 z m 10.135901,10.602214 h 40.832595 a 3.96875,3.96875 0 0 1 3.96854,3.968329 v 16.348868 a 3.96875,3.96875 0 0 1 -3.96854,3.96833 H 73.195055 a 3.96875,3.96875 0 0 1 -3.969268,-3.96833 V 88.911562 a 3.96875,3.96875 0 0 1 3.969268,-3.968329 z m 27.399555,3.470191 a 3.96875,3.96875 0 0 0 -3.96927,3.968975 v 7.763731 a 3.96875,3.96875 0 0 0 3.96927,3.96833 h 9.04926 a 3.96875,3.96875 0 0 0 3.96854,-3.96833 v -7.763731 a 3.96875,3.96875 0 0 0 -3.96854,-3.968975 z"
       transform="matrix(0.7081107,0,0,0.80086618,23.615839,23.206062)" />
    <path
       id="rect3"
       style="fill:#000000;stroke-width:0.264583"
       d="m 101.10029,123.0731 v 2.90629 a 1.0583333,1.0583333 135 0 1 -1.05833,1.05833 h -2.906288 a 1.0583333,1.0583333 135 0 0 -1.058333,1.05833 v 2.90629 a 1.0583333,1.0583333 45 0 0 1.058333,1.05833 h 2.906288 a 1.0583333,1.0583333 45 0 1 1.05833,1.05833 v 2.90629 a 1.0583333,1.0583333 45 0 0 1.05833,1.05833 h 2.9068 a 1.0583333,1.0583333 135 0 0 1.05833,-1.05833 V 133.119 a 1.0583333,1.0583333 135 0 1 1.05833,-1.05833 h 2.90629 a 1.0583333,1.0583333 135 0 0 1.05833,-1.05833 l 0,-2.90629 a 1.0583333,1.0583333 45 0 0 -1.05833,-1.05833 l -2.90629,0 a 1.0583333,1.0583333 45 0 1 -1.05833,-1.05833 v -2.90629 a 1.0583333,1.0583333 45 0 0 -1.05833,-1.05833 h -2.9068 a 1.0583333,1.0583333 135 0 0 -1.05833,1.05833 z"
       transform="matrix(2.3939233,0,0,2.5515501,-136.48164,-192.23453)" />
  </g>
</svg>
