<?xml version="1.0" encoding="UTF-8" standalone="no"?>
<svg
   width="204.34599"
   height="204.34599"
   viewBox="0 0 54.066 54.066"
   version="1.1"
   id="svg1"
   xmlns="http://www.w3.org/2000/svg"
   xmlns:svg="http://www.w3.org/2000/svg">
  <defs
     id="defs1" />
  <path
     id="circle1"
     style="fill:#000000;stroke-width:0.264583"
     d="M 27.034254,0 A 27.033001,27.033001 0 0 0 0.00103352,27.03322 27.033001,27.033001 0 0 0 27.034254,54.065923 27.033001,27.033001 0 0 0 54.066957,27.03322 27.033001,27.033001 0 0 0 27.034254,0 Z m -0.001,9.0122791 c 0.900768,3e-7 1.801264,0.376056 2.440653,1.1291189 l 8.81281,10.379624 c 1.393179,1.640862 0.226557,4.160944 -1.925961,4.160944 h -4.39917 v 15.443346 c 0,2.722085 -2.206255,4.928849 -4.928332,4.928849 -2.72208,0 -4.928848,-2.206764 -4.928848,-4.928849 V 24.681966 h -4.399171 c -2.152532,0 -3.318629,-2.520082 -1.925444,-4.160944 L 24.59205,10.141398 c 0.639391,-0.7530619 1.540402,-1.1291191 2.44117,-1.1291189 z" />
</svg>
