<?xml version="1.0" encoding="UTF-8" standalone="no"?>
<!-- Created with Inkscape (http://www.inkscape.org/) -->

<svg
   width="78.724167mm"
   height="78.724167mm"
   viewBox="0 0 78.724167 78.724167"
   version="1.1"
   id="svg1"
   xmlns="http://www.w3.org/2000/svg"
   xmlns:svg="http://www.w3.org/2000/svg">
  <defs
     id="defs1" />
  <g
     id="layer1"
     transform="translate(-119.38394,-79.710883)">
    <path
       id="path1"
       style="display:inline;stroke-width:0.264583"
       d="m 59.738673,172.47346 c -0.432163,-0.41752 -0.876651,-0.82434 -1.333372,-1.22009 -6.060823,-5.25167 -13.811699,-8.1425 -21.831275,-8.14238 -15.427722,0.0379 -28.8140326,10.65662 -32.361589,25.67098 h -20.975125 c -4.246769,0 -7.665519,3.41875 -7.665519,7.66552 0,4.24676 3.419114,7.66588 7.665885,7.66588 H 4.2120716 c 3.5476199,15.01463 16.9343244,25.63345 32.3623204,25.67098 18.411167,-1.3e-4 33.336367,-14.92533 33.336497,-33.3365 1.23e-4,-9.065 -3.68977,-17.71149 -10.172216,-23.97439 z m -6.302549,6.45456 c 2.552675,2.45656 4.575753,5.46402 5.830077,8.78623 2.528341,6.38669 2.039004,13.81545 -1.121801,19.89059 -2.83213,5.65334 -8.034932,10.00477 -14.046267,11.92617 -5.453378,1.82729 -11.547875,1.59136 -16.843095,-0.65481 -5.715065,-2.31245 -10.431847,-6.92382 -12.876963,-12.58317 -2.645842,-5.80309 -2.775997,-12.64513 -0.470279,-18.57915 3.299972,-9.0026 12.464593,-15.3855 22.021286,-15.5755 2.882486,-0.0749 5.772829,0.37648 8.500842,1.30816 3.371495,1.11896 6.453524,3.02492 9.0062,5.48148 z"
       transform="rotate(-45)" />
    <rect
       style="fill:#000000;stroke-width:0.264583"
       id="rect2"
       width="39.397957"
       height="10.696279"
       x="145.0724"
       y="107.69948"
       ry="5.3481393" />
  </g>
</svg>
