<?xml version="1.0" encoding="UTF-8" standalone="no"?>
<!-- Created with Inkscape (http://www.inkscape.org/) -->

<svg
   version="1.1"
   id="svg1"
   width="170.66667"
   height="170.66667"
   viewBox="0 0 170.66667 170.66667"
   sodipodi:docname="icon.svg"
   inkscape:version="1.3.2 (1:1.3.2+202311252150+091e20ef0f)"
   xmlns:inkscape="http://www.inkscape.org/namespaces/inkscape"
   xmlns:sodipodi="http://sodipodi.sourceforge.net/DTD/sodipodi-0.dtd"
   xmlns="http://www.w3.org/2000/svg"
   xmlns:svg="http://www.w3.org/2000/svg">
  <defs
     id="defs1" />
  <sodipodi:namedview
     id="namedview1"
     pagecolor="#ffffff"
     bordercolor="#000000"
     borderopacity="0.25"
     inkscape:showpageshadow="2"
     inkscape:pageopacity="0.0"
     inkscape:pagecheckerboard="0"
     inkscape:deskcolor="#d1d1d1"
     showgrid="false"
     inkscape:zoom="1.3403264"
     inkscape:cx="-308.50695"
     inkscape:cy="-37.304346"
     inkscape:window-width="2488"
     inkscape:window-height="1536"
     inkscape:window-x="72"
     inkscape:window-y="27"
     inkscape:window-maximized="1"
     inkscape:current-layer="g1" />
  <g
     inkscape:groupmode="layer"
     inkscape:label="Image"
     id="g1">
    <g
       id="g2">
      <path
         style="fill:#c9ac37;fill-opacity:1"
         d="m 123.02574,141.60213 c -3.13082,-3.31448 -5.6924,-7.05741 -5.6924,-8.31763 0,-1.26022 -0.9,-3.03824 -2,-3.95116 -1.1,-0.91292 -2,-3.3222 -2,-5.35394 0,-2.05365 -0.88815,-4.03491 -2,-4.46156 -1.1,-0.42211 -2,-2.02917 -2,-3.57123 0,-1.54206 -0.9,-3.70375 -2,-4.80375 -1.1,-1.1 -2,-3.38368 -2,-5.07484 0,-1.69115 -0.9,-3.82176 -2,-4.73468 -1.1,-0.91292 -2.01909,-2.636389 -2.04241,-3.82993 -0.0233,-1.193541 -0.92332,-3.334752 -1.999998,-4.758247 -3.906144,-5.164385 -2.08115,-6.400429 3.234278,-2.190533 2.85553,2.261622 5.59556,4.112039 6.08896,4.112039 0.4934,0 2.86369,1.500001 5.26732,3.333334 2.40362,1.833333 4.73694,3.333337 5.18516,3.333337 0.44821,0 3.09157,1.56006 5.87414,3.46679 2.78257,1.90674 6.40921,3.99189 8.05921,4.63367 1.65,0.64178 3,1.78172 3,2.5332 0,0.75149 1.05,1.3692 2.33334,1.37271 2.49228,0.007 12.33333,8.34483 12.33333,10.44966 0,0.69227 0.9,1.60403 2,2.02614 3.61105,1.38568 -1.14037,12.85116 -5.32565,12.85116 -0.83809,0 -3.37055,1.96841 -7.07169,5.49663 -1.24813,1.18981 -4.35775,2.45621 -6.91026,2.81422 l -4.64093,0.65093 z"
         id="path4" />
      <path
         style="fill:#3e3e83;fill-opacity:1;stroke:#000000;stroke-opacity:1"
         d="m 111.65383,131.75531 -3.49358,0.84869 c -11.089362,2.69393 -14.848083,3.28554 -21.207158,3.33794 -8.581525,0.0707 -12.47464,2.41677 -15.632983,9.42073 l -2.391772,5.304 h -5.544683 c -18.447956,0 -37.120609,-13.90935 -31.488142,-23.45567 3.625091,-6.14407 3.474234,-8.35128 -0.916809,-13.4139 -2.004953,-2.31159 -5.261909,-6.93065 -7.23768,-10.26457 L 20.148712,97.47085 12.407689,97.06876 4.6666668,96.66667 4.2883035,82.341122 3.9099402,68.015575 8.2883036,65.346106 c 2.4081004,-1.468208 5.9855064,-2.671712 7.9497924,-2.674453 3.568697,-0.005 7.761905,-2.999197 7.761905,-5.542494 0,-0.740868 2.137411,-3.955461 4.749803,-7.143541 L 33.499606,44.18911 31.41647,40.160769 c -1.145725,-2.215588 -2.083136,-4.66559 -2.083136,-5.44445 0,-1.898363 13.398037,-10.373817 20.644717,-13.059626 l 5.808044,-2.152612 5.581397,3.693593 5.581396,3.693594 8.301441,-1.445634 c 4.565793,-0.795098 10.181183,-1.445633 12.478646,-1.445633 2.796456,0 4.643536,-0.871349 5.588007,-2.636109 3.255037,-6.082093 14.930258,-5.278599 29.143588,2.005674 l 4.46056,2.28602 -0.84327,5.623324 -0.84327,5.623324 5.04937,3.508685 c 2.77716,1.929777 6.18342,5.026775 7.56947,6.882217 l 2.5201,3.373532 h 7.79651 7.79651 l 3.14289,5 c 3.98987,6.34746 7.88063,18.023309 7.32071,21.968867 L 166,80.666669 l -7.66666,2.490425 -7.66667,2.490425 v 3.251025 c 0,1.788064 -1.82287,6.92505 -4.05083,11.415526 -2.22796,4.49047 -3.74679,8.95682 -3.37518,9.92521 1.5066,3.92614 -8.38521,-0.63307 -21.48503,-9.9026 -2.3344,-1.651837 -4.90323,-3.003344 -5.70851,-3.003344 -0.80528,0 -1.78873,-0.845851 -2.18544,-1.87967 -0.39671,-1.033819 -2.02788,-2.232033 -3.62482,-2.662699 -4.03586,-1.088399 -9.74085,-5.731413 -8.53007,-6.9422 0.55016,-0.550156 3.70432,0.905695 7.00925,3.235225 l 6.00897,4.23551 2.47752,-1.547237 c 1.42562,-0.890318 3.21472,-4.620246 4.21385,-8.785079 l 1.73633,-7.237843 -1.64176,-6.208004 C 119.33976,61.331355 114.21334,55.196183 105.30016,50.140638 L 98.000003,46.000001 H 84.666669 71.333335 l -6.003133,2.851619 c -32.426272,15.40318 -22.421546,51.26945 16.3879,58.74952 10.76728,2.07527 17.971269,-3.03604 14.332328,-10.168958 -2.967388,-5.816562 -3.485045,-9.432179 -1.350427,-9.432179 0.751667,0 1.726667,1.8 2.166667,4 0.44,2.2 1.325,4 1.966666,4 0.641667,0 1.166664,1.426533 1.166664,3.170074 0,1.743543 0.9,3.917003 2,4.829923 1.1,0.91292 2,2.23934 2,2.9476 0,0.70826 1.79798,5.1723 3.99551,9.92007 2.19754,4.74778 4.36258,10.09483 4.81122,11.88233 0.44863,1.7875 1.35065,3.25 2.00448,3.25 z"
         id="path2"
         sodipodi:nodetypes="cssscsssscccccscsscssscccsssscccsscccsscccssssssssscsscsscccssssssssssscc" />
    </g>
  </g>
</svg>
